<svg version="1.1" viewBox="0 0 128 30" xmlns="http://www.w3.org/2000/svg"><rect width="128" height="30" ry="14.130577" fill="#fff" fill-rule="evenodd" opacity="1"/><path d="m57.561282 9.8538975h-13.51575v-1.0038975h6.9c1.443792-1.6198451 1.392774-3.8846708-0.6-3.9-1 0-2.5 0.5-4.4 1.6v-0.9c2.6-1.3 4.6-2 6.1-2 1.8 0 2.700001 0.9 2.700001 2.8 0 0.9-0.3 1.6-0.9 2.4h3.715749zm-0.21575 4.5961025c0 3.1-2 4.6-6.1 4.6-0.5 0-1.2 0-2-0.1 0.243262 4.402222 4.17032 4.588152 7.400001 4.6v1.2c-7.592293 0.04147-10.905137-1.048762-10.9-6.8 2.155705 0.135868 4.508729 0.264969 6.5-0.5 2.871567-1.424365 2.259791-6.34816-0.8-6.4-1.468521 0.0019-2.471502 0.591086-2.6 1.7 0 0.4 0.2 0.7 0.7 1l-3.1 2.1c-0.4-1.2-0.6-2.1-0.6-3 0.39034-3.0281107 3.748834-2.9554047 6.099999-2.9580191 1.700001 0 2.9 0.1580191 3.700001 0.6580191 1.1 0.8 1.7 2.1 1.699999 3.9z" fill="#26aae1"/><path d="m78.746094 3.6503906c-1.5 0-3.499611 0.7-6.09961 2v0.9003906c2.559979-1.4632648 8.205545-2.8994072 5 2.2988282h-20.101562v1h9.601562v1.7011716l-7.40039 3c-0.034942 4.986758 1.142251 10.210779 6.798828 10.199219h3.90039v-15h15.201172v-0.9003906h-5.101562c1.676041-1.9917416 1.466254-5.1790288-1.798828-5.1992188zm-0.09961 6.1992188c-2.472454-0.037593-5.819579-0.208987-6.101562 2.9999996 0 0.9 0.201561 1.8 0.601562 3l3.09961-2.099609c-0.5-0.3-0.701172-0.6-0.701172-1 0.06553-1.192876 1.101556-1.739299 2.601562-1.699219 3.353658 0.07283 3.775347 5.058036 0.798828 6.398438-2.138204 0.890912-4.281323 0.40497-6.5 0.5-0.0051 5.289448 2.804327 6.884231 10.900391 6.800781v-1.199219c-2.100001 0-3.699219-0.201562-4.699219-0.601562-1.8-0.7-2.701172-2-2.701172-4 3.432965 0.392035 8.02027-0.09438 8.09961-4.5-0.03658-2.860447-1.935657-4.6066896-5.398438-4.5996096zm-11.5 2.5996096v11.5h-0.90039c-3.094135-0.868587-3.722321-5.992566-3.201172-9.59961z" fill="#eb2227"/><path d="m85.044922 8.8496094v0.9060067h1.300781c-0.40617 2.6309889 0.345046 4.6820339 3.5 4.8947749l-2.699219 2.199218c0.02692 4.416764 2.896693 7.729341 7.5 7.900391h3.199219v-14.900391h9.900387v1.701172l-7.40039 3c0 2.9 0.5 5.29961 1.5 7.09961 1.2 2.1 3.00078 3.099609 5.30078 3.099609h3.89844v-15h2v-0.9003906zm5.300781 0.9003906h4.199219v14.099609c-4.056417-0.75942-4.0936-5.408141-3.798828-8.40039l2.099609-1.798828v-1.5c-0.681326 0.582501-1.664257 1.672703-2.599609 1.5-1.588594-0.24485-2.12211-2.995417 0.099609-3.900391zm17.400387 2.699219v11.40039h-0.90039c-2.1-1.1-3.19922-4.299609-3.19922-9.599609z" fill="#25b04b"/><path d="m25.322331 10.939043s-2.597505 4.747901-6.449276 3.822292c0 0-3.075601-1.044805-3.971374-7.4642917 0 0-0.328264-2.8967349 0.746338-3.1959182 0 0 5.135788-0.9252102 9.34601 2.9563511 4.1e-5 -4.09e-5 1.613474 1.3738308 0.328302 3.8815668z" fill="#eb2227" stroke-width=".99218756"/><path d="m29.930759 14.582471s-4.773647-2.548954-3.886721-6.4106443c0 0 1.01462-3.0862699 7.424154-4.0468253 0 0 2.893397-0.3569812 3.202539 0.7147211 0 0 0.977493 5.1262303-2.861784 9.3754495 8.1e-5 0-1.356453 1.62632-3.878188 0.367299z" fill="#29abe2" stroke-width=".99218756"/><path d="m26.339928 19.144559s2.549313-4.774006 6.410643-3.887076c0 0 3.085518 1.014263 4.046827 7.423078 0 0 0.356986 2.894155-0.714721 3.203297 0 0-5.12659 0.978205-9.376161-2.861783-4.1e-5 0-1.625649-1.357287-0.366588-3.877516z" fill="#51b748" stroke-width=".99218756"/><path d="m21.882407 15.449165s4.651464 2.543793 3.76454 6.403659c0 0-0.891727 3.092144-7.303121 4.051981 0 0-2.892686 0.359205-3.201471-0.713215 0 0-0.978205-5.125872 2.861388-9.375843 3.8e-5 0 1.357324-1.625209 3.878664-0.366582z" fill="#ffd400" stroke-width=".99218756"/><path d="m31.352116 14.999999a5.4976477 5.4976477 0 0 1-5.497337 5.497649 5.4976477 5.4976477 0 0 1-5.497958-5.497026 5.4976477 5.4976477 0 0 1 5.496711-5.4982725 5.4976477 5.4976477 0 0 1 5.498584 5.4964025" fill="#fff" fill-rule="evenodd" stroke-width="3.7500007"/><path d="m25.858465 10.754055c-2.371268 2.37e-4 -4.293362 1.883793-4.293182 4.207018 1.43e-4 2.323257 1.922588 4.206513 4.293889 4.206406 1.508915-0.0013 3.63528-0.783234 3.652529-2.001083-0.0406-0.866311-0.356152-1.01528-0.66795-1.271483 0.821994 0.03549 1.310322-0.395449 1.263013-1.551369-0.304791-2.030905-2.090803-3.589737-4.248299-3.589489z" fill="#fff" fill-rule="evenodd" stroke-width="3.7500007"/><path d="m25.873791 10.931737c-2.293216 2.49e-4 -4.152049 1.821789-4.151875 4.068553 1.49e-4 2.246793 1.85931 4.068067 4.152566 4.067967 1.45925-0.0013 3.515629-0.75746 3.532313-1.935223-0.169153-1.146251-1.402395-1.069998-1.543457-0.713646-1.175226 1.792646-3.759202 1.17464-4.31518-0.673714h5.339863c1.091613-0.07207 1.118283-0.746606 1.094251-1.342591-0.29476-1.96406-2.021994-3.471591-4.108481-3.471346zm2.326732 3.322584h-4.654217c0.787809-2.462069 3.941266-2.350568 4.654217 0z" fill="#24aae0" fill-rule="evenodd" stroke-width="3.7500007"/><path d="m101.21817 23.400575c-0.70001 0-1.00001 0.30039-1.00001 0.90039 0.15703 1.143664 0.96665 1.850748 1.89845 1.798828 0.7 0 1-0.30039 1-0.90039-0.0758-0.760123-0.80584-1.784828-1.89844-1.798828z" fill="#25b04b" stroke="#25b04b"/></svg>
